<svg xmlns="http://www.w3.org/2000/svg" xmlns:xlink="http://www.w3.org/1999/xlink" width="109" zoomAndPan="magnify" viewBox="0 0 81.75 42.75" height="57" preserveAspectRatio="xMidYMid meet" version="1.0"><defs><g/><clipPath id="b7cc3578dc"><path d="M 45.886719 21 L 78.695312 21 L 78.695312 31 L 45.886719 31 Z M 45.886719 21 " clip-rule="nonzero"/></clipPath><clipPath id="ad71d09d7e"><path d="M 45.921875 29.40625 C 45.921875 28.605469 46.628906 27.980469 47.4375 28.066406 L 72.613281 30.742188 C 75.714844 31.070312 78.332031 28.492188 77.984375 25.441406 C 77.628906 22.300781 74.332031 20.347656 71.34375 21.511719 L 47.792969 30.65625 C 46.894531 31.007812 45.921875 30.355469 45.921875 29.40625 Z M 45.921875 29.40625 " clip-rule="nonzero"/></clipPath><linearGradient x1="129.714718" gradientTransform="matrix(0.884879, 0, 0, 0.869913, 45.920127, 20.945831)" y1="28.970091" x2="123.17754" gradientUnits="userSpaceOnUse" y2="49.975246" id="9d54cbecc6"><stop stop-opacity="1" stop-color="rgb(79.492188%, 32.261658%, 48.849487%)" offset="0"/><stop stop-opacity="1" stop-color="rgb(79.46167%, 32.17926%, 49.024963%)" offset="0.0078125"/><stop stop-opacity="1" stop-color="rgb(79.400635%, 32.014465%, 49.377441%)" offset="0.015625"/><stop stop-opacity="1" stop-color="rgb(79.3396%, 31.848145%, 49.728394%)" offset="0.0234375"/><stop stop-opacity="1" stop-color="rgb(79.278564%, 31.68335%, 50.079346%)" offset="0.03125"/><stop stop-opacity="1" stop-color="rgb(79.217529%, 31.518555%, 50.430298%)" offset="0.0390625"/><stop stop-opacity="1" stop-color="rgb(79.156494%, 31.35376%, 50.782776%)" offset="0.046875"/><stop stop-opacity="1" stop-color="rgb(79.095459%, 31.188965%, 51.133728%)" offset="0.0546875"/><stop stop-opacity="1" stop-color="rgb(79.034424%, 31.02417%, 51.48468%)" offset="0.0625"/><stop stop-opacity="1" stop-color="rgb(78.971863%, 30.857849%, 51.837158%)" offset="0.0703125"/><stop stop-opacity="1" stop-color="rgb(78.910828%, 30.693054%, 52.18811%)" offset="0.078125"/><stop stop-opacity="1" stop-color="rgb(78.849792%, 30.528259%, 52.539062%)" offset="0.0859375"/><stop stop-opacity="1" stop-color="rgb(78.788757%, 30.363464%, 52.891541%)" offset="0.09375"/><stop stop-opacity="1" stop-color="rgb(78.727722%, 30.198669%, 53.242493%)" offset="0.101563"/><stop stop-opacity="1" stop-color="rgb(78.666687%, 30.033875%, 53.593445%)" offset="0.109375"/><stop stop-opacity="1" stop-color="rgb(78.605652%, 29.867554%, 53.944397%)" offset="0.117188"/><stop stop-opacity="1" stop-color="rgb(78.544617%, 29.702759%, 54.296875%)" offset="0.125"/><stop stop-opacity="1" stop-color="rgb(78.483582%, 29.537964%, 54.647827%)" offset="0.132813"/><stop stop-opacity="1" stop-color="rgb(78.422546%, 29.373169%, 54.998779%)" offset="0.140625"/><stop stop-opacity="1" stop-color="rgb(78.361511%, 29.208374%, 55.351257%)" offset="0.148438"/><stop stop-opacity="1" stop-color="rgb(78.300476%, 29.043579%, 55.702209%)" offset="0.15625"/><stop stop-opacity="1" stop-color="rgb(78.237915%, 28.877258%, 56.053162%)" offset="0.164063"/><stop stop-opacity="1" stop-color="rgb(78.17688%, 28.712463%, 56.40564%)" offset="0.171875"/><stop stop-opacity="1" stop-color="rgb(78.115845%, 28.547668%, 56.756592%)" offset="0.179688"/><stop stop-opacity="1" stop-color="rgb(78.05481%, 28.382874%, 57.107544%)" offset="0.1875"/><stop stop-opacity="1" stop-color="rgb(77.993774%, 28.218079%, 57.458496%)" offset="0.195313"/><stop stop-opacity="1" stop-color="rgb(77.932739%, 28.053284%, 57.810974%)" offset="0.203125"/><stop stop-opacity="1" stop-color="rgb(77.871704%, 27.888489%, 58.161926%)" offset="0.210938"/><stop stop-opacity="1" stop-color="rgb(77.810669%, 27.722168%, 58.512878%)" offset="0.21875"/><stop stop-opacity="1" stop-color="rgb(77.749634%, 27.557373%, 58.865356%)" offset="0.226563"/><stop stop-opacity="1" stop-color="rgb(77.688599%, 27.392578%, 59.216309%)" offset="0.234375"/><stop stop-opacity="1" stop-color="rgb(77.627563%, 27.227783%, 59.567261%)" offset="0.242188"/><stop stop-opacity="1" stop-color="rgb(77.565002%, 27.062988%, 59.919739%)" offset="0.25"/><stop stop-opacity="1" stop-color="rgb(77.503967%, 26.898193%, 60.270691%)" offset="0.257812"/><stop stop-opacity="1" stop-color="rgb(77.442932%, 26.731873%, 60.621643%)" offset="0.265625"/><stop stop-opacity="1" stop-color="rgb(77.381897%, 26.567078%, 60.972595%)" offset="0.273438"/><stop stop-opacity="1" stop-color="rgb(77.320862%, 26.402283%, 61.325073%)" offset="0.28125"/><stop stop-opacity="1" stop-color="rgb(77.259827%, 26.237488%, 61.676025%)" offset="0.289062"/><stop stop-opacity="1" stop-color="rgb(77.198792%, 26.072693%, 62.026978%)" offset="0.296875"/><stop stop-opacity="1" stop-color="rgb(77.137756%, 25.907898%, 62.379456%)" offset="0.304688"/><stop stop-opacity="1" stop-color="rgb(77.076721%, 25.741577%, 62.730408%)" offset="0.3125"/><stop stop-opacity="1" stop-color="rgb(77.015686%, 25.576782%, 63.08136%)" offset="0.320312"/><stop stop-opacity="1" stop-color="rgb(76.954651%, 25.411987%, 63.433838%)" offset="0.328125"/><stop stop-opacity="1" stop-color="rgb(76.893616%, 25.247192%, 63.78479%)" offset="0.335938"/><stop stop-opacity="1" stop-color="rgb(76.831055%, 25.082397%, 64.135742%)" offset="0.34375"/><stop stop-opacity="1" stop-color="rgb(76.77002%, 24.917603%, 64.486694%)" offset="0.351562"/><stop stop-opacity="1" stop-color="rgb(76.708984%, 24.751282%, 64.839172%)" offset="0.359375"/><stop stop-opacity="1" stop-color="rgb(76.647949%, 24.586487%, 65.190125%)" offset="0.367188"/><stop stop-opacity="1" stop-color="rgb(76.586914%, 24.421692%, 65.541077%)" offset="0.375"/><stop stop-opacity="1" stop-color="rgb(76.525879%, 24.256897%, 65.893555%)" offset="0.382812"/><stop stop-opacity="1" stop-color="rgb(76.464844%, 24.092102%, 66.244507%)" offset="0.390625"/><stop stop-opacity="1" stop-color="rgb(76.403809%, 23.927307%, 66.595459%)" offset="0.398438"/><stop stop-opacity="1" stop-color="rgb(76.342773%, 23.762512%, 66.947937%)" offset="0.40625"/><stop stop-opacity="1" stop-color="rgb(76.281738%, 23.596191%, 67.298889%)" offset="0.414062"/><stop stop-opacity="1" stop-color="rgb(76.220703%, 23.431396%, 67.649841%)" offset="0.421875"/><stop stop-opacity="1" stop-color="rgb(76.158142%, 23.266602%, 68.000793%)" offset="0.429687"/><stop stop-opacity="1" stop-color="rgb(76.097107%, 23.101807%, 68.353271%)" offset="0.4375"/><stop stop-opacity="1" stop-color="rgb(76.036072%, 22.937012%, 68.704224%)" offset="0.445312"/><stop stop-opacity="1" stop-color="rgb(75.975037%, 22.772217%, 69.055176%)" offset="0.453125"/><stop stop-opacity="1" stop-color="rgb(75.914001%, 22.605896%, 69.407654%)" offset="0.460937"/><stop stop-opacity="1" stop-color="rgb(75.852966%, 22.441101%, 69.758606%)" offset="0.46875"/><stop stop-opacity="1" stop-color="rgb(75.791931%, 22.276306%, 70.109558%)" offset="0.476562"/><stop stop-opacity="1" stop-color="rgb(75.730896%, 22.111511%, 70.462036%)" offset="0.484375"/><stop stop-opacity="1" stop-color="rgb(75.669861%, 21.946716%, 70.812988%)" offset="0.492187"/><stop stop-opacity="1" stop-color="rgb(75.608826%, 21.781921%, 71.16394%)" offset="0.494775"/><stop stop-opacity="1" stop-color="rgb(75.578308%, 21.699524%, 71.339417%)" offset="0.5"/><stop stop-opacity="1" stop-color="rgb(75.547791%, 21.615601%, 71.514893%)" offset="0.505225"/><stop stop-opacity="1" stop-color="rgb(75.517273%, 21.533203%, 71.691895%)" offset="0.507812"/><stop stop-opacity="1" stop-color="rgb(75.485229%, 21.450806%, 71.867371%)" offset="0.515625"/><stop stop-opacity="1" stop-color="rgb(75.424194%, 21.286011%, 72.218323%)" offset="0.523437"/><stop stop-opacity="1" stop-color="rgb(75.363159%, 21.121216%, 72.569275%)" offset="0.53125"/><stop stop-opacity="1" stop-color="rgb(75.302124%, 20.956421%, 72.921753%)" offset="0.539062"/><stop stop-opacity="1" stop-color="rgb(75.241089%, 20.791626%, 73.272705%)" offset="0.546875"/><stop stop-opacity="1" stop-color="rgb(75.180054%, 20.625305%, 73.623657%)" offset="0.554687"/><stop stop-opacity="1" stop-color="rgb(75.119019%, 20.46051%, 73.976135%)" offset="0.5625"/><stop stop-opacity="1" stop-color="rgb(75.057983%, 20.295715%, 74.327087%)" offset="0.570312"/><stop stop-opacity="1" stop-color="rgb(74.996948%, 20.13092%, 74.67804%)" offset="0.578125"/><stop stop-opacity="1" stop-color="rgb(74.935913%, 19.966125%, 75.028992%)" offset="0.585937"/><stop stop-opacity="1" stop-color="rgb(74.874878%, 19.801331%, 75.38147%)" offset="0.59375"/><stop stop-opacity="1" stop-color="rgb(74.813843%, 19.636536%, 75.732422%)" offset="0.601562"/><stop stop-opacity="1" stop-color="rgb(74.751282%, 19.470215%, 76.083374%)" offset="0.609375"/><stop stop-opacity="1" stop-color="rgb(74.690247%, 19.30542%, 76.435852%)" offset="0.617187"/><stop stop-opacity="1" stop-color="rgb(74.629211%, 19.140625%, 76.786804%)" offset="0.625"/><stop stop-opacity="1" stop-color="rgb(74.568176%, 18.97583%, 77.137756%)" offset="0.632812"/><stop stop-opacity="1" stop-color="rgb(74.507141%, 18.811035%, 77.490234%)" offset="0.640625"/><stop stop-opacity="1" stop-color="rgb(74.446106%, 18.64624%, 77.841187%)" offset="0.648437"/><stop stop-opacity="1" stop-color="rgb(74.385071%, 18.479919%, 78.192139%)" offset="0.65625"/><stop stop-opacity="1" stop-color="rgb(74.324036%, 18.315125%, 78.543091%)" offset="0.664062"/><stop stop-opacity="1" stop-color="rgb(74.263%, 18.15033%, 78.895569%)" offset="0.671875"/><stop stop-opacity="1" stop-color="rgb(74.201965%, 17.985535%, 79.246521%)" offset="0.679687"/><stop stop-opacity="1" stop-color="rgb(74.14093%, 17.82074%, 79.597473%)" offset="0.6875"/><stop stop-opacity="1" stop-color="rgb(74.078369%, 17.655945%, 79.949951%)" offset="0.695312"/><stop stop-opacity="1" stop-color="rgb(74.017334%, 17.489624%, 80.300903%)" offset="0.703125"/><stop stop-opacity="1" stop-color="rgb(73.956299%, 17.324829%, 80.651855%)" offset="0.710937"/><stop stop-opacity="1" stop-color="rgb(73.895264%, 17.160034%, 81.004333%)" offset="0.71875"/><stop stop-opacity="1" stop-color="rgb(73.834229%, 16.995239%, 81.355286%)" offset="0.726562"/><stop stop-opacity="1" stop-color="rgb(73.773193%, 16.830444%, 81.706238%)" offset="0.734375"/><stop stop-opacity="1" stop-color="rgb(73.712158%, 16.665649%, 82.05719%)" offset="0.742187"/><stop stop-opacity="1" stop-color="rgb(73.651123%, 16.499329%, 82.409668%)" offset="0.75"/><stop stop-opacity="1" stop-color="rgb(73.590088%, 16.334534%, 82.76062%)" offset="0.757812"/><stop stop-opacity="1" stop-color="rgb(73.529053%, 16.169739%, 83.111572%)" offset="0.765625"/><stop stop-opacity="1" stop-color="rgb(73.468018%, 16.004944%, 83.46405%)" offset="0.773437"/><stop stop-opacity="1" stop-color="rgb(73.406982%, 15.840149%, 83.815002%)" offset="0.78125"/><stop stop-opacity="1" stop-color="rgb(73.344421%, 15.675354%, 84.165955%)" offset="0.789062"/><stop stop-opacity="1" stop-color="rgb(73.283386%, 15.510559%, 84.518433%)" offset="0.796875"/><stop stop-opacity="1" stop-color="rgb(73.222351%, 15.344238%, 84.869385%)" offset="0.804687"/><stop stop-opacity="1" stop-color="rgb(73.161316%, 15.179443%, 85.220337%)" offset="0.8125"/><stop stop-opacity="1" stop-color="rgb(73.100281%, 15.014648%, 85.571289%)" offset="0.820312"/><stop stop-opacity="1" stop-color="rgb(73.039246%, 14.849854%, 85.923767%)" offset="0.828125"/><stop stop-opacity="1" stop-color="rgb(72.97821%, 14.685059%, 86.274719%)" offset="0.835937"/><stop stop-opacity="1" stop-color="rgb(72.917175%, 14.520264%, 86.625671%)" offset="0.84375"/><stop stop-opacity="1" stop-color="rgb(72.85614%, 14.353943%, 86.978149%)" offset="0.851562"/><stop stop-opacity="1" stop-color="rgb(72.795105%, 14.189148%, 87.329102%)" offset="0.859375"/><stop stop-opacity="1" stop-color="rgb(72.73407%, 14.024353%, 87.680054%)" offset="0.867187"/><stop stop-opacity="1" stop-color="rgb(72.671509%, 13.859558%, 88.032532%)" offset="0.875"/><stop stop-opacity="1" stop-color="rgb(72.610474%, 13.694763%, 88.383484%)" offset="0.882812"/><stop stop-opacity="1" stop-color="rgb(72.549438%, 13.529968%, 88.734436%)" offset="0.890625"/><stop stop-opacity="1" stop-color="rgb(72.488403%, 13.363647%, 89.085388%)" offset="0.898437"/><stop stop-opacity="1" stop-color="rgb(72.427368%, 13.198853%, 89.437866%)" offset="0.90625"/><stop stop-opacity="1" stop-color="rgb(72.366333%, 13.034058%, 89.788818%)" offset="0.914062"/><stop stop-opacity="1" stop-color="rgb(72.305298%, 12.869263%, 90.139771%)" offset="0.921875"/><stop stop-opacity="1" stop-color="rgb(72.244263%, 12.704468%, 90.492249%)" offset="0.929687"/><stop stop-opacity="1" stop-color="rgb(72.183228%, 12.539673%, 90.843201%)" offset="0.9375"/><stop stop-opacity="1" stop-color="rgb(72.122192%, 12.373352%, 91.194153%)" offset="0.945312"/><stop stop-opacity="1" stop-color="rgb(72.061157%, 12.208557%, 91.546631%)" offset="0.953125"/><stop stop-opacity="1" stop-color="rgb(72.000122%, 12.043762%, 91.897583%)" offset="0.960937"/><stop stop-opacity="1" stop-color="rgb(71.937561%, 11.878967%, 92.248535%)" offset="0.96875"/><stop stop-opacity="1" stop-color="rgb(71.876526%, 11.714172%, 92.599487%)" offset="0.976562"/><stop stop-opacity="1" stop-color="rgb(71.815491%, 11.549377%, 92.951965%)" offset="0.984375"/><stop stop-opacity="1" stop-color="rgb(71.754456%, 11.384583%, 93.302917%)" offset="0.992188"/><stop stop-opacity="1" stop-color="rgb(71.69342%, 11.218262%, 93.65387%)" offset="1"/></linearGradient></defs><g clip-path="url(#b7cc3578dc)"><g clip-path="url(#ad71d09d7e)"><path fill="url(#9d54cbecc6)" d="M 45.921875 20.945312 L 45.921875 31.070312 L 78.332031 31.070312 L 78.332031 20.945312 Z M 45.921875 20.945312 " fill-rule="nonzero"/></g></g><g fill="#ffffff" fill-opacity="1"><g transform="translate(3.105251, 25.724565)"><g><path d="M 1.21875 0 L 1.21875 -12 L 6.359375 -12 C 7.773438 -12 8.941406 -11.734375 9.859375 -11.203125 C 10.785156 -10.671875 11.472656 -9.957031 11.921875 -9.0625 C 12.378906 -8.175781 12.609375 -7.179688 12.609375 -6.078125 C 12.609375 -5.253906 12.484375 -4.476562 12.234375 -3.75 C 11.984375 -3.019531 11.601562 -2.367188 11.09375 -1.796875 C 10.582031 -1.234375 9.929688 -0.789062 9.140625 -0.46875 C 8.359375 -0.15625 7.429688 0 6.359375 0 Z M 4.578125 -2.859375 L 6.359375 -2.859375 C 7.078125 -2.859375 7.644531 -3.015625 8.0625 -3.328125 C 8.488281 -3.648438 8.789062 -4.054688 8.96875 -4.546875 C 9.15625 -5.046875 9.25 -5.570312 9.25 -6.125 C 9.25 -6.675781 9.148438 -7.179688 8.953125 -7.640625 C 8.765625 -8.109375 8.457031 -8.484375 8.03125 -8.765625 C 7.613281 -9.046875 7.054688 -9.1875 6.359375 -9.1875 L 4.578125 -9.1875 Z M 4.578125 -2.859375 "/></g></g></g><g fill="#ffffff" fill-opacity="1"><g transform="translate(16.292601, 25.724565)"><g><path d="M 0.921875 0 L 0.921875 -12 L 4.109375 -12 L 4.109375 -7.546875 C 4.410156 -7.941406 4.738281 -8.222656 5.09375 -8.390625 C 5.457031 -8.554688 5.882812 -8.640625 6.375 -8.640625 C 6.9375 -8.640625 7.46875 -8.503906 7.96875 -8.234375 C 8.476562 -7.960938 8.894531 -7.539062 9.21875 -6.96875 C 9.539062 -6.394531 9.703125 -5.640625 9.703125 -4.703125 L 9.703125 0 L 6.546875 0 L 6.546875 -4.671875 C 6.546875 -5.160156 6.4375 -5.488281 6.21875 -5.65625 C 6 -5.820312 5.726562 -5.90625 5.40625 -5.90625 C 5.09375 -5.90625 4.796875 -5.789062 4.515625 -5.5625 C 4.234375 -5.34375 4.09375 -4.976562 4.09375 -4.46875 L 4.09375 0 Z M 0.921875 0 "/></g></g></g><g fill="#ffffff" fill-opacity="1"><g transform="translate(26.773969, 25.724565)"><g><path d="M 7.21875 -8.46875 L 10.1875 -8.46875 L 10.1875 0 L 7.265625 0 L 7.125 -0.921875 C 6.832031 -0.578125 6.476562 -0.3125 6.0625 -0.125 C 5.644531 0.0625 5.179688 0.15625 4.671875 0.15625 C 3.816406 0.15625 3.070312 -0.0195312 2.4375 -0.375 C 1.800781 -0.738281 1.3125 -1.242188 0.96875 -1.890625 C 0.632812 -2.546875 0.46875 -3.320312 0.46875 -4.21875 C 0.46875 -5.082031 0.640625 -5.84375 0.984375 -6.5 C 1.335938 -7.164062 1.820312 -7.6875 2.4375 -8.0625 C 3.0625 -8.445312 3.773438 -8.640625 4.578125 -8.640625 C 5.734375 -8.640625 6.554688 -8.273438 7.046875 -7.546875 Z M 5.28125 -2.375 C 5.78125 -2.375 6.195312 -2.546875 6.53125 -2.890625 C 6.863281 -3.242188 7.03125 -3.6875 7.03125 -4.21875 C 7.03125 -4.8125 6.875 -5.273438 6.5625 -5.609375 C 6.257812 -5.941406 5.832031 -6.109375 5.28125 -6.109375 C 4.78125 -6.109375 4.375 -5.929688 4.0625 -5.578125 C 3.75 -5.234375 3.59375 -4.78125 3.59375 -4.21875 C 3.59375 -3.65625 3.75 -3.207031 4.0625 -2.875 C 4.375 -2.539062 4.78125 -2.375 5.28125 -2.375 Z M 5.28125 -2.375 "/></g></g></g><g fill="#ffffff" fill-opacity="1"><g transform="translate(37.854764, 25.724565)"><g><path d="M 0.921875 0 L 0.921875 -8.46875 L 3.71875 -8.46875 L 3.859375 -7.53125 C 4.222656 -7.945312 4.640625 -8.238281 5.109375 -8.40625 C 5.578125 -8.570312 6.019531 -8.65625 6.4375 -8.65625 C 7.0625 -8.65625 7.625 -8.535156 8.125 -8.296875 C 8.632812 -8.054688 9.046875 -7.648438 9.359375 -7.078125 C 9.671875 -6.503906 9.828125 -5.710938 9.828125 -4.703125 L 9.828125 0 L 6.6875 0 L 6.6875 -4.671875 C 6.6875 -5.203125 6.5625 -5.566406 6.3125 -5.765625 C 6.070312 -5.972656 5.800781 -6.078125 5.5 -6.078125 C 5.113281 -6.078125 4.773438 -5.945312 4.484375 -5.6875 C 4.191406 -5.425781 4.046875 -5.015625 4.046875 -4.453125 L 4.046875 0 Z M 0.921875 0 "/></g></g></g><g fill="#ffffff" fill-opacity="1"><g transform="translate(48.507399, 25.724565)"><g><path d="M 4.1875 0.203125 C 3.59375 0.203125 3.035156 0.0820312 2.515625 -0.15625 C 2.003906 -0.394531 1.59375 -0.800781 1.28125 -1.375 C 0.976562 -1.957031 0.828125 -2.753906 0.828125 -3.765625 L 0.828125 -8.46875 L 3.984375 -8.46875 L 3.984375 -3.78125 C 3.984375 -3.257812 4.101562 -2.894531 4.34375 -2.6875 C 4.59375 -2.476562 4.863281 -2.375 5.15625 -2.375 C 5.519531 -2.375 5.851562 -2.5 6.15625 -2.75 C 6.457031 -3 6.609375 -3.398438 6.609375 -3.953125 L 6.609375 -8.46875 L 9.71875 -8.46875 L 9.71875 0 L 6.921875 0 L 6.8125 -0.921875 C 6.457031 -0.515625 6.039062 -0.222656 5.5625 -0.046875 C 5.082031 0.117188 4.625 0.203125 4.1875 0.203125 Z M 4.1875 0.203125 "/></g></g></g><g fill="#ffffff" fill-opacity="1"><g transform="translate(59.160035, 25.724565)"><g><path d="M 4.421875 0.21875 C 3.691406 0.21875 2.945312 0.125 2.1875 -0.0625 C 1.4375 -0.257812 0.816406 -0.535156 0.328125 -0.890625 L 1.359375 -3.1875 C 2.003906 -2.757812 2.59375 -2.492188 3.125 -2.390625 C 3.65625 -2.296875 4.082031 -2.25 4.40625 -2.25 C 4.9375 -2.25 5.203125 -2.382812 5.203125 -2.65625 C 5.203125 -2.914062 4.90625 -3.066406 4.3125 -3.109375 C 3.90625 -3.128906 3.488281 -3.1875 3.0625 -3.28125 C 2.632812 -3.382812 2.242188 -3.539062 1.890625 -3.75 C 1.535156 -3.96875 1.242188 -4.25 1.015625 -4.59375 C 0.796875 -4.9375 0.6875 -5.363281 0.6875 -5.875 C 0.6875 -6.5625 0.875 -7.109375 1.25 -7.515625 C 1.625 -7.921875 2.109375 -8.210938 2.703125 -8.390625 C 3.296875 -8.566406 3.925781 -8.65625 4.59375 -8.65625 C 5.269531 -8.65625 5.910156 -8.5625 6.515625 -8.375 C 7.128906 -8.1875 7.632812 -7.9375 8.03125 -7.625 L 6.71875 -5.765625 C 6.476562 -5.910156 6.148438 -6.03125 5.734375 -6.125 C 5.316406 -6.226562 4.9375 -6.28125 4.59375 -6.28125 C 4.363281 -6.28125 4.179688 -6.25 4.046875 -6.1875 C 3.910156 -6.132812 3.84375 -6.019531 3.84375 -5.84375 C 3.84375 -5.769531 3.878906 -5.6875 3.953125 -5.59375 C 4.035156 -5.507812 4.207031 -5.460938 4.46875 -5.453125 C 4.914062 -5.441406 5.363281 -5.390625 5.8125 -5.296875 C 6.269531 -5.203125 6.691406 -5.054688 7.078125 -4.859375 C 7.460938 -4.660156 7.769531 -4.382812 8 -4.03125 C 8.238281 -3.675781 8.359375 -3.21875 8.359375 -2.65625 C 8.359375 -1.957031 8.171875 -1.394531 7.796875 -0.96875 C 7.429688 -0.550781 6.945312 -0.25 6.34375 -0.0625 C 5.75 0.125 5.109375 0.21875 4.421875 0.21875 Z M 4.421875 0.21875 "/></g></g></g><g fill="#ffffff" fill-opacity="1"><g transform="translate(67.894505, 25.724565)"><g><path d="M 0.921875 0 L 0.921875 -12 L 4.109375 -12 L 4.109375 -7.546875 C 4.410156 -7.941406 4.738281 -8.222656 5.09375 -8.390625 C 5.457031 -8.554688 5.882812 -8.640625 6.375 -8.640625 C 6.9375 -8.640625 7.46875 -8.503906 7.96875 -8.234375 C 8.476562 -7.960938 8.894531 -7.539062 9.21875 -6.96875 C 9.539062 -6.394531 9.703125 -5.640625 9.703125 -4.703125 L 9.703125 0 L 6.546875 0 L 6.546875 -4.671875 C 6.546875 -5.160156 6.4375 -5.488281 6.21875 -5.65625 C 6 -5.820312 5.726562 -5.90625 5.40625 -5.90625 C 5.09375 -5.90625 4.796875 -5.789062 4.515625 -5.5625 C 4.234375 -5.34375 4.09375 -4.976562 4.09375 -4.46875 L 4.09375 0 Z M 0.921875 0 "/></g></g></g></svg>